<svg xmlns="http://www.w3.org/2000/svg" viewBox="0 0 106.9 165.7"><path fill="#2B3138" d="m103.9 82.7-5.7-58.3c0-3.9-3-7-6.6-7H16c-3.6 0-6.6 3.2-6.6 7L3 82.7c9.9-18 28.6-31 50.2-31 21.9 0 40.9 12.6 50.7 31z"/><path fill="#221A1F" d="M3.1 82c9.9-18 29-31 50.6-31 21.9 0 40.7 13.3 50.5 31.7l1.7 17.3C101 74.9 79.4 56 53.5 56S6 74.9 1.1 100l2-18z"/><ellipse fill="#2B3138" cx="53.5" cy="110.9" rx="53.5" ry="54.9"/><g fill="#31383F"><path d="M26.1 35.6c1.3.9 3 1.4 4.7 1.4 1.7 0 3.4-.5 4.7-1.4h-9.4zM24.4 34.2h12.7c.4-.4.7-.9 1-1.4H23.4c.3.5.6 1 1 1.4zM22.7 31.4h16c.2-.5.3-.9.4-1.4 0-.2.1-.5.1-.7H22.3c0 .2 0 .5.1.7.1.4.2.9.3 1.4M39.2 27.8c0-.2 0-.5-.1-.7-.1-.5-.2-1-.4-1.4h-16c-.2.5-.3.9-.4 1.4 0 .2-.1.5-.1.7h17M24.4 22.8h12.7c.4.4.7.9 1 1.4H23.4c.3-.4.6-.9 1-1.4zM35.5 21.4c-1.3-.9-3-1.4-4.7-1.4-1.7 0-3.4.5-4.7 1.4h9.4z"/></g><path fill="#221A1F" d="M100.4 46.6H7l.1-1h45.5V17.4h1v28.2h46.7z"/><path fill="#31383F" d="M56.9 56.2c-.7 0-1.4.5-1.4 1.3l-1.5 26c0 .7.5 1.4 1.3 1.4.7 0 1.4-.5 1.4-1.3l1.4-26.1c.1-.6-.5-1.3-1.2-1.3z"/><path fill="#1E1B1D" d="M54.8 17.4h-3.1c.4-1.5.9-4.8-.5-7.8-1.7-4-6.1-6.6-11.2-6.8-.2 0-.4-.2-.4-.4V.3c0-.3.2-.5.5-.5C46.3 0 51.7 3.3 54 8.4c1.7 3.7 1.3 7.1.8 9z"/></svg>
